<?xml version="1.0" encoding="utf-8"?>
<!-- Generator: Adobe Illustrator 13.0.0, SVG Export Plug-In . SVG Version: 6.00 Build 14948)  -->
<!DOCTYPE svg PUBLIC "-//W3C//DTD SVG 1.1//EN" "http://www.w3.org/Graphics/SVG/1.1/DTD/svg11.dtd">
<svg version="1.1" id="Layer_1" xmlns="http://www.w3.org/2000/svg" xmlns:xlink="http://www.w3.org/1999/xlink" x="0px" y="0px"
	 width="168px" height="116px" viewBox="-0.5 25.5 168 116" enable-background="new -0.5 25.5 168 116" xml:space="preserve">
<g>
	<g>
		
			<linearGradient id="SVGID_1_" gradientUnits="userSpaceOnUse" x1="305" y1="1506" x2="471" y2="1506" gradientTransform="matrix(1 0 0 1 -304.5 -1406)">
			<stop  offset="0" style="stop-color:#1B4A78"/>
			<stop  offset="1" style="stop-color:#5DACD1"/>
		</linearGradient>
		<path fill="url(#SVGID_1_)" d="M166.174,110.443c-3.75,16.848-39.385,30.057-82.787,30.057c-43.817,0-79.715-13.463-82.886-30.54
			V59.5h166L166.174,110.443z"/>
		<ellipse fill="#3A78A0" cx="83.537" cy="59.5" rx="82.963" ry="33"/>
		<g id="g13565_3_" transform="matrix(0.84958,0.276715,-0.703617,0.334119,261.38112,-194.91401)">
			<polygon id="path13507_3_" opacity="0.7117" fill="#F2FDFF" enable-background="new    " points="249.72,496.046 242.545,508.47 
				235.369,520.894 242.79,520.895 242.788,546.385 256.63,546.383 256.629,520.894 264.052,520.893 256.878,508.47 			"/>
			<polygon id="path13509_3_" opacity="0.7117" fill="#F2FDFF" enable-background="new    " points="249.712,609.191 
				242.539,596.768 235.362,584.345 242.785,584.344 242.791,558.856 256.627,558.854 256.625,584.342 264.047,584.342 
				256.873,596.77 			"/>
			<polygon id="path13511_3_" opacity="0.7117" fill="#F2FDFF" enable-background="new    " points="255.811,552.448 
				268.237,545.272 280.662,538.095 280.662,545.518 306.15,545.515 306.151,559.354 280.661,559.359 280.658,566.779 
				268.235,559.604 			"/>
			<polygon id="path13513_3_" opacity="0.7117" fill="#F2FDFF" enable-background="new    " points="243.341,552.449 
				230.916,545.274 218.492,538.1 218.493,545.522 193.001,545.524 193,559.363 218.49,559.361 218.49,566.782 230.913,559.606 			
				"/>
		</g>
	</g>
	<g>
		<g>
			<g>
				<path fill="#1D4D7B" d="M58.834,110.911c-0.192,1.307-0.835,2.519-1.929,3.633c-0.302,0.31-2.575,1.921-6.814,4.829
					c-0.864,0.633-1.86,1.411-2.988,2.331c-0.621,0.51-0.947,0.774-0.982,0.795l10.388,1.534l-0.468,3.158l-14.477-2.144
					l0.313-2.116c1.111-1.226,2.209-2.261,3.293-3.105c1.475-1.087,2.694-1.98,3.663-2.682c1.655-1.227,2.647-1.988,2.981-2.293
					c1.65-1.418,2.595-2.937,2.836-4.563c0.161-1.091-0.062-2.13-0.669-3.12c-0.606-0.987-1.442-1.562-2.507-1.72
					c-1.316-0.194-2.42,0.126-3.312,0.96c-0.892,0.834-1.43,1.877-1.615,3.129c-0.076,0.505-0.079,1.063-0.008,1.674
					c0.069,0.608,0.182,1.144,0.339,1.601l-2.502-0.939c-0.261-0.826-0.315-1.762-0.162-2.798c0.264-1.782,1.215-3.134,2.856-4.048
					c1.64-0.916,3.4-1.229,5.28-0.954c1.911,0.282,3.499,1.022,4.763,2.216C58.521,107.615,59.094,109.152,58.834,110.911z"/>
				<path fill="#1D4D7B" d="M81.034,121.493c-0.113,2.206-1.09,3.985-2.935,5.35c-1.846,1.362-3.986,1.98-6.423,1.857
					c-1.993-0.101-3.716-0.526-5.168-1.273c-1.854-0.956-2.742-2.227-2.661-3.815c0.019-0.375,0.067-0.704,0.145-0.981
					c0.076-0.276,0.174-0.619,0.289-1.019l2.403-0.481c-0.111,0.317-0.218,0.688-0.319,1.117c-0.101,0.428-0.16,0.813-0.176,1.162
					c-0.055,1.049,0.288,1.936,1.029,2.661c0.74,0.726,1.728,1.119,2.96,1.181c1.804,0.091,3.325-0.492,4.563-1.75
					c1.135-1.153,1.743-2.5,1.821-4.03c0.08-1.561-0.323-2.854-1.206-3.881c-0.884-1.027-2.18-1.586-3.888-1.675
					c-0.917-0.047-1.717,0.095-2.399,0.426c-0.682,0.329-1.393,0.865-2.126,1.609l-1.817-0.779l2.66-11.146l12.858,0.652
					l-0.974,3.227l-10.784-0.547l-1.419,6.15c1.172-0.559,2.097-0.928,2.774-1.109c0.901-0.25,1.891-0.349,2.97-0.295
					c2.503,0.129,4.46,0.854,5.87,2.18C80.493,117.605,81.145,119.343,81.034,121.493z"/>
				<path fill="#1D4D7B" d="M103.844,117.355c0.115,3.312-0.318,5.884-1.297,7.725c-1.313,2.441-3.531,3.721-6.666,3.829
					c-3.072,0.108-5.313-0.999-6.725-3.319c-1.111-1.818-1.723-4.372-1.838-7.652c-0.113-3.256,0.303-5.814,1.252-7.68
					c1.277-2.496,3.449-3.799,6.521-3.906c3.102-0.108,5.389,1.037,6.871,3.435C103.104,111.659,103.73,114.182,103.844,117.355z
					 M99.287,117.518c-0.016-0.403-0.029-0.832-0.047-1.291c-0.02-0.457-0.031-0.927-0.047-1.412
					c-0.102-2.823-0.5-4.742-1.203-5.756c-0.701-1.014-1.652-1.498-2.857-1.457c-1.391,0.051-2.332,0.797-2.82,2.241
					c-0.344,1.009-0.482,2.534-0.41,4.578c0.021,0.593,0.041,1.172,0.061,1.733c0.021,0.568,0.039,1.104,0.059,1.615
					c0.02,0.539,0.037,1.098,0.059,1.676c0.021,0.576,0.043,1.175,0.066,1.795c0.068,1.988,0.313,3.488,0.727,4.5
					c0.588,1.406,1.578,2.085,2.973,2.035c1.488-0.051,2.508-0.816,3.059-2.289c0.404-1.118,0.57-2.699,0.498-4.743
					c-0.02-0.565-0.039-1.119-0.059-1.654C99.322,118.552,99.303,118.027,99.287,117.518z"/>
				<path fill="#1D4D7B" d="M126.309,114.771c0.424,3.283,0.23,5.886-0.576,7.81c-1.074,2.555-3.168,4.032-6.275,4.433
					c-3.049,0.394-5.383-0.5-7.006-2.68c-1.273-1.709-2.123-4.188-2.543-7.448c-0.416-3.228-0.236-5.817,0.531-7.763
					c1.037-2.604,3.08-4.102,6.127-4.495c3.078-0.396,5.465,0.53,7.162,2.78C125.041,109.166,125.902,111.62,126.309,114.771z
					 M121.783,115.354c-0.053-0.4-0.105-0.826-0.166-1.28c-0.059-0.453-0.117-0.923-0.182-1.402
					c-0.361-2.803-0.936-4.674-1.729-5.619c-0.793-0.944-1.783-1.338-2.979-1.182c-1.381,0.177-2.248,1.01-2.6,2.491
					c-0.248,1.037-0.244,2.57,0.02,4.6c0.074,0.586,0.15,1.161,0.223,1.723c0.074,0.563,0.141,1.094,0.207,1.603
					c0.07,0.534,0.141,1.088,0.217,1.663c0.072,0.574,0.148,1.171,0.229,1.779c0.252,1.977,0.635,3.447,1.145,4.414
					c0.715,1.348,1.766,1.928,3.146,1.752c1.473-0.189,2.42-1.045,2.83-2.565c0.297-1.149,0.316-2.738,0.057-4.771
					c-0.072-0.562-0.145-1.107-0.215-1.643C121.918,116.381,121.85,115.861,121.783,115.354z"/>
			</g>
		</g>
		<g>
			<g>
				<path fill="#CCEAEE" d="M57.747,110.911c-0.194,1.307-0.837,2.519-1.932,3.633c-0.302,0.31-2.574,1.921-6.814,4.829
					c-0.863,0.633-1.859,1.411-2.986,2.331c-0.622,0.51-0.947,0.774-0.981,0.795l10.386,1.534l-0.466,3.158l-14.479-2.144
					l0.315-2.116c1.109-1.226,2.208-2.261,3.292-3.105c1.474-1.087,2.693-1.98,3.663-2.682c1.655-1.227,2.649-1.988,2.981-2.293
					c1.65-1.418,2.595-2.937,2.836-4.563c0.162-1.091-0.061-2.13-0.668-3.12c-0.604-0.987-1.441-1.562-2.506-1.72
					c-1.318-0.194-2.422,0.126-3.313,0.96c-0.893,0.834-1.429,1.877-1.615,3.129c-0.075,0.505-0.08,1.063-0.009,1.674
					c0.069,0.608,0.182,1.144,0.34,1.601l-2.501-0.941c-0.264-0.826-0.317-1.762-0.163-2.799c0.264-1.782,1.215-3.133,2.855-4.047
					c1.641-0.916,3.401-1.229,5.281-0.955c1.91,0.283,3.497,1.022,4.763,2.217C57.431,107.615,58.006,109.152,57.747,110.911z"/>
				<path fill="#CCEAEE" d="M79.947,121.493c-0.113,2.206-1.092,3.985-2.937,5.35c-1.845,1.362-3.985,1.98-6.42,1.857
					c-1.993-0.101-3.719-0.526-5.17-1.273c-1.854-0.956-2.743-2.227-2.661-3.815c0.019-0.375,0.066-0.704,0.146-0.981
					c0.076-0.276,0.173-0.619,0.288-1.019l2.403-0.481c-0.111,0.317-0.219,0.688-0.32,1.117c-0.101,0.428-0.16,0.813-0.175,1.162
					c-0.054,1.049,0.289,1.936,1.028,2.661c0.741,0.726,1.728,1.119,2.962,1.181c1.805,0.091,3.324-0.492,4.562-1.75
					c1.137-1.153,1.744-2.5,1.821-4.03c0.08-1.561-0.323-2.854-1.205-3.881c-0.884-1.027-2.179-1.586-3.889-1.675
					c-0.917-0.047-1.716,0.095-2.398,0.426c-0.683,0.329-1.391,0.865-2.127,1.609l-1.817-0.78l2.661-11.145l12.857,0.651
					l-0.974,3.226l-10.784-0.545l-1.419,6.149c1.173-0.559,2.098-0.928,2.774-1.11c0.902-0.248,1.892-0.348,2.97-0.293
					c2.503,0.127,4.46,0.854,5.873,2.179C79.407,117.605,80.054,119.343,79.947,121.493z"/>
				<path fill="#CCEAEE" d="M102.756,117.355c0.117,3.312-0.318,5.884-1.297,7.725c-1.311,2.441-3.531,3.721-6.664,3.829
					c-3.072,0.108-5.313-0.999-6.727-3.319c-1.113-1.818-1.725-4.372-1.838-7.652c-0.115-3.256,0.303-5.814,1.252-7.68
					c1.275-2.496,3.447-3.799,6.52-3.906c3.104-0.108,5.391,1.037,6.871,3.435C102.016,111.659,102.645,114.182,102.756,117.355z
					 M98.199,117.518c-0.016-0.403-0.029-0.832-0.047-1.291c-0.02-0.457-0.031-0.927-0.049-1.412
					c-0.1-2.823-0.498-4.742-1.199-5.756s-1.652-1.498-2.857-1.457c-1.393,0.051-2.334,0.797-2.822,2.241
					c-0.344,1.009-0.48,2.534-0.41,4.578c0.021,0.593,0.041,1.172,0.061,1.733c0.023,0.568,0.039,1.104,0.057,1.615
					c0.021,0.539,0.041,1.098,0.063,1.676c0.02,0.576,0.041,1.175,0.063,1.795c0.07,1.988,0.314,3.488,0.729,4.5
					c0.588,1.406,1.578,2.085,2.973,2.035c1.488-0.051,2.506-0.816,3.059-2.289c0.404-1.118,0.57-2.699,0.5-4.743
					c-0.021-0.565-0.039-1.119-0.061-1.654C98.234,118.552,98.215,118.027,98.199,117.518z"/>
				<path fill="#CCEAEE" d="M125.221,114.771c0.422,3.283,0.232,5.886-0.574,7.81c-1.076,2.555-3.17,4.032-6.279,4.433
					c-3.049,0.394-5.383-0.5-7.004-2.68c-1.273-1.709-2.123-4.188-2.541-7.448c-0.418-3.228-0.238-5.817,0.531-7.763
					c1.035-2.604,3.078-4.102,6.127-4.495c3.076-0.396,5.465,0.53,7.16,2.78C123.957,109.166,124.813,111.62,125.221,114.771z
					 M120.697,115.354c-0.053-0.4-0.107-0.826-0.168-1.28c-0.059-0.453-0.119-0.923-0.18-1.402c-0.361-2.803-0.938-4.674-1.73-5.619
					c-0.791-0.944-1.783-1.338-2.979-1.182c-1.381,0.177-2.25,1.01-2.602,2.491c-0.25,1.037-0.24,2.57,0.02,4.6
					c0.076,0.586,0.15,1.161,0.225,1.723c0.074,0.563,0.143,1.094,0.207,1.603c0.07,0.534,0.143,1.088,0.219,1.663
					c0.07,0.574,0.148,1.171,0.229,1.779c0.252,1.977,0.633,3.447,1.143,4.414c0.717,1.348,1.768,1.928,3.148,1.752
					c1.477-0.189,2.42-1.045,2.83-2.565c0.299-1.149,0.318-2.738,0.055-4.771c-0.074-0.562-0.143-1.107-0.211-1.643
					C120.828,116.381,120.762,115.861,120.697,115.354z"/>
			</g>
		</g>
	</g>
</g>
</svg>
